<svg class="topsvg" viewBox="0 0 250 200" xmlns="http://www.w3.org/2000/svg">
    <g id="Page-1" stroke="none" stroke-width="1" fill="none" fill-rule="evenodd">
        <g id="logo_white" fill-rule="nonzero">
            <g id="Group">
                <path
                    d="M139.287,71.199 C138.652,68.792 137.686,65.115 136.946,62.354 C136.384,60.317 136.125,58.003 136.725,55.942 C136.893,55.363 137.151,54.842 137.436,54.312 C138.675,52.011 140.99,50.423 143.559,49.997 C144.725,49.804 145.923,49.863 147.065,50.164 C148.262,50.48 149.39,51.045 150.376,51.789 C151.408,52.569 152.216,53.577 153.158,54.453 C154.685,55.878 156.732,56.75 158.984,56.75 C163.705,56.75 167.533,52.922 167.533,48.202 C167.533,46.801 167.193,45.481 166.596,44.316 C166.544,44.215 166.49,44.113 166.433,44.012 C166.395,43.946 166.356,43.878 166.316,43.812 C165.36,42.201 163.978,40.802 162.553,39.579 C159.814,37.226 156.58,35.45 153.142,34.355 C151.525,33.839 149.859,33.474 148.173,33.281 C144.462,32.855 140.67,33.243 137.124,34.416 C123.148,39.03 116.445,52.056 120.452,66.839 C120.848,68.318 121.533,70.928 121.894,72.287 C118.903,72.93 115.934,73.809 113.019,74.932 C99.367,80.189 88.532,91.863 84.743,105.4 C83.396,110.215 82.934,115.206 83.373,120.239 C84.32,131.114 90.121,141.245 98.887,147.334 C107.146,153.072 117.025,154.756 126.713,152.085 C133.57,150.191 139.666,146.116 143.878,140.612 C150.543,131.906 152.531,120.463 149.475,108.394 C148.363,104.003 146.963,99.125 145.611,94.405 C145.12,92.7 144.63,90.987 144.149,89.289 C149.945,90.78 155.29,93.6 159.634,97.658 C174.725,111.753 177.634,136.031 166.399,154.135 C156.532,170.037 137.311,180.311 117.433,180.311 C83.913,180.311 56.643,153.042 56.643,119.524 C56.643,116.547 56.874,113.534 57.328,110.576 C57.693,108.19 58.208,105.811 58.856,103.5 C59.496,101.222 60.279,98.956 61.184,96.771 C62.084,94.599 63.119,92.465 64.266,90.418 C65.399,88.39 66.672,86.402 68.043,84.506 C69.399,82.629 70.888,80.806 72.462,79.089 C74.031,77.377 75.718,75.74 77.475,74.218 C79.23,72.699 81.097,71.264 83.021,69.952 C84.952,68.635 86.979,67.422 89.047,66.343 C90.182,65.752 91.332,65.196 92.501,64.68 C93.128,64.402 93.762,64.136 94.399,63.881 C98.785,62.133 100.922,57.161 99.174,52.775 C97.427,48.389 92.456,46.248 88.068,48.003 C87.24,48.333 86.417,48.681 85.578,49.049 C84.074,49.716 82.59,50.429 81.137,51.19 C78.483,52.575 75.881,54.132 73.398,55.823 C70.93,57.505 68.538,59.344 66.287,61.295 C64.037,63.243 61.872,65.344 59.864,67.537 C57.843,69.737 55.937,72.076 54.193,74.483 C52.435,76.914 50.804,79.467 49.35,82.068 C47.878,84.694 46.546,87.438 45.39,90.227 C44.225,93.042 43.217,95.955 42.397,98.886 C41.564,101.854 40.903,104.914 40.432,107.978 C39.845,111.794 39.547,115.68 39.547,119.524 C39.547,162.469 74.487,197.405 117.431,197.405 C143.088,197.405 168.01,183.958 180.921,163.147 C196.629,137.84 192.582,105.043 171.299,85.165 C162.586,77.026 151.244,72.252 139.287,71.199 Z M130.304,130.222 C128.342,132.785 125.447,134.7 122.159,135.609 C116.13,137.267 111.479,135.267 108.641,133.296 C103.994,130.069 100.915,124.63 100.4,118.756 C100.142,115.779 100.41,112.837 101.203,110.008 C103.566,101.568 110.446,94.241 119.161,90.884 C121.501,89.984 123.885,89.301 126.279,88.832 C127.186,92.181 128.184,95.663 129.176,99.121 C130.516,103.787 131.844,108.409 132.902,112.59 C134.138,117.47 134.691,124.491 130.304,130.222 Z"
                    id="Shape" fill="#ed1c24"></path>
            </g>
        </g>
    </g>
</svg>